# xmcd CD database file
#
# Track frame offsets:
#	150
#	18512
#	35076
#	53581
#	70253
#	85832
#	103150
#	119718
#
# Disc length: 1837 seconds
#
# Revision: 1
# Processed by: cddbd v1.5.2PL0 Copyright (c) Steve Scherf et al.
# Submitted via: CDex 1.51
#
DISCID=6c072b08
DTITLE=White Elephant - 紫電一閃
DYEAR=2012
DGENRE=東方アレンジ
TTITLE0=桜華ヴァルプルギスナハト feat.謎の人物K
TTITLE1=BREAK THE SEAL feat.謎の人物K
TTITLE2=accelerate→game feat.riraka
TTITLE3=Feather ～ particular Ver feat.Le Ciel
TTITLE4=旅は道連れ、冥土の土産 feat.riraka
TTITLE5=mysterious song feat.久猫あむ
TTITLE6=惨憺たる大海原より feat.のりこ
TTITLE7=紅い傘、黒い雨 feat.小田ユウ
EXTD=YEAR: 2012
EXTT0=
EXTT1=
EXTT2=
EXTT3=
EXTT4=
EXTT5=
EXTT6=
EXTT7=
PLAYORDER=
